<?xml version="1.0" encoding="utf-8"?>
<!-- Generator: Adobe Illustrator 16.0.0, SVG Export Plug-In . SVG Version: 6.00 Build 0)  -->
<!DOCTYPE svg PUBLIC "-//W3C//DTD SVG 1.1//EN" "http://www.w3.org/Graphics/SVG/1.1/DTD/svg11.dtd">
<svg version="1.1" id="Calque_1" xmlns="http://www.w3.org/2000/svg" xmlns:xlink="http://www.w3.org/1999/xlink" x="0px" y="0px"
	 width="411px" height="400px" viewBox="0 0 411 400" enable-background="new 0 0 411 400" xml:space="preserve">
<g id="fond" display="none">
	<g display="inline">
		<g>
			<rect x="-1400" y="-1021" fill="#BA9093" width="600" height="421"/>
		</g>
		<g>
			<rect x="-700" y="-1021" fill="#45A7CE" width="600" height="421"/>
		</g>
		<g>
			<rect y="-1021" fill="#BA9093" width="600" height="421"/>
		</g>
		<g>
			<rect x="700" y="-1021" fill="#BA9093" width="600" height="421"/>
		</g>
		<g>
			<rect x="-1400" y="-521" fill="#8CCADC" width="600" height="421"/>
		</g>
		<g>
			<rect x="-700" y="-521" fill="#BA9093" width="600" height="421"/>
		</g>
		<g>
			<rect y="-521" fill="#8CCADC" width="600" height="421"/>
		</g>
		<g>
			<rect y="-1625" fill="#8CCADC" width="600" height="421"/>
		</g>
		<g>
			<rect x="700" y="-1625" fill="#8CCADC" width="600" height="421"/>
		</g>
		<g>
			<rect x="700" y="-521" fill="#6FCEB1" width="600" height="421"/>
		</g>
		<g>
			<rect x="-1400" y="-21" fill="#6FCEB1" width="600" height="421"/>
		</g>
		<g>
			<rect x="-700" y="-21" fill="#6FCEB1" width="600" height="421"/>
		</g>
		<g>
			<rect y="-21" fill="#F4AB5D" width="600" height="421"/>
		</g>
		<g>
			<rect x="700" y="-21" fill="#F4AB5D" width="600" height="421"/>
		</g>
		<g>
			<rect x="-1400" y="479" fill="#F4AB5D" width="600" height="421"/>
		</g>
		<g>
			<rect x="-1400" y="943" fill="#F4AB5D" width="600" height="421"/>
		</g>
		<g>
			<rect x="-700" y="479" fill="#45A7CE" width="600" height="421"/>
		</g>
		<g>
			<rect x="-700" y="943" fill="#45A7CE" width="600" height="421"/>
		</g>
		<g>
			<rect y="479" fill="#F4AB5D" width="600" height="421"/>
		</g>
		<g>
			<rect x="700" y="479" fill="#F4AB5D" width="600" height="421"/>
		</g>
	</g>
</g>
<g id="Calque_1_1_">
	<path fill="#0067A5" d="M165.932,164.255c0,0,5.701,16.151,8.936,20.825c0,0-2.825-49.842,32.414-58.979
		c0,0-3.027,12.02,3.368,22.912c0,0,6.819-27.43,30.389-37.88c23.529-10.434,27.828-4.368,27.847-4.343
		c0.467,0.662-7.086,14.429-7.602,15.708c-5.505,13.682-8.923,28.395-9.84,43.113c-1.25,20.068,2.439,34.009,10.854,51.546
		c7.756,16.168,8.158,38.776-1.027,54.721c-13.291,23.065-47.047,17.17-67.029,6.879
		C157.786,259.989,128.389,196.045,165.932,164.255z"/>
	<g>
		<path fill="#E84E1C" d="M224.848,116.611c-3.662,2.365-7.111-2.593-8.076-5.504c-1.268-3.827-4.104-24.966,4.783-19.133
			c4.041,2.652,5.285,7.414,5.619,11.955C227.445,107.633,228.626,114.173,224.848,116.611z"/>
		<path fill="#E84E1C" d="M125.633,99.946c-8.617-5.662-10.729,7.83-9.713,13.499c1.719,9.605,12.822,10.447,12.982-0.182
			c0.074-5.006-1.41-9.243-3.799-13.581"/>
		<g>
			<g>
				<path fill="#E84E1C" d="M214.35,229.799c0.479-0.406,0.873-0.842,1.199-1.301c0.438,0.799,0.856,1.6,1.24,2.402
					c2.969,6.166-3.999,6.949-8.557,8.396c-1.657,0.529-7.23,2.997-8.688,1.017c-1.451-1.978,2.535-4.75,3.379-6.229
					c0.287-0.507,0.457-1.017,0.532-1.526c0.839,0.102,1.742,0.248,2.741,0.375C209.079,233.298,212.207,231.616,214.35,229.799z"/>
				<path fill="#8CCADC" d="M195.456,222.221c3.123-2.783,5.317-7.961,9.054-9.812c3.772,5.141,7.995,10.566,11.041,16.093
					c-0.326,0.459-0.72,0.896-1.199,1.301c-2.145,1.817-5.271,3.499-8.146,3.136c-0.999-0.127-1.899-0.275-2.739-0.375
					C203.998,228.891,199.444,225.139,195.456,222.221z"/>
			</g>
			<path fill="#8C4C31" d="M263.71,112.532c-0.524-0.33-1.071-0.64-1.641-0.885c-0.111-0.047-1.718-0.415-1.638-0.285
				c0.604,0.98,1.68,1.619,2.59,2.338c0.633,0.495,2.971,1.081,2.943,1.984c-0.664,0.045-1.436,0.087-2.076-0.103
				c-1.146-0.337-2.021-1.174-3.072-1.694c-0.725-0.359-2.039-1.173-2.828-1.082c0.205,1.089,1.297,1.876,1.896,2.725
				c0.686,0.967-0.351,0.938-1.052,0.69c-1.299-0.456-1.782-1.609-2.711-2.47c-1.038-0.963-2.854-1.425-4.108-2.1
				c-1.951-1.054-3.481-1.133-5.688-0.766c-2.062,0.345-4.021,1.194-6.094,1.479c-2.061,0.282-4.148,0.535-6.225,0.718
				c-6.43,0.562-12.99-0.22-19.451-0.219c-2.899,0.001-5.865,0.035-8.643-0.268c-2.566-0.277-5.884-1.937-8.404-1.258
				c3.691,7.697,9.186,11.274,16.371,15.089c6.653,3.53,13.752,6.994,18.129,13.379c8.285,12.085,5.293,24.746-2.768,36.055
				c-3.925,5.508-9.445,9.596-15.21,13.022c-4.974,2.956-19.53,9.277-20.604,10.432c4.939,1.684,6.424,6.578,9.166,10.445
				c0.617,0.874,1.26,1.754,1.91,2.646c-3.734,1.854-5.931,7.031-9.054,9.812c-1.758-1.285-3.405-2.41-4.457-3.297
				c-6.056-5.102-12.167-9.12-17.226-15.372c-2.797-3.46-1.064-6.944,0.31-10.927c2.11-6.117,4.325-12.387,7.196-18.193
				c-5.469,5.236-10.941,10.402-17.117,14.819c-5.102,3.647-10.416,8.218-15.872,11.255c-1.334,0.744-1.791,0.727-2.979,1.729
				c-1.043,0.881-1.834,2.348-2.744,3.379c-1.532,1.74-3.188,3.373-5.025,4.779c-3.469-3.688-8.257-6.498-13.18-7.465
				c0.867-1.955,1.693-3.944,2.568-5.937c3.914-8.928,9.5-16.604,16.366-23.516c5.552-5.59,12.298-9.455,16.784-15.957
				c1.582-2.294,3.423-3.961,5.247-6.005c2.901-3.252,4.506-8.724,5.685-12.832c-1.242-0.806-2.846-0.771-4.207-1.343
				c-1.783-0.744-3.476-1.917-5.109-2.937c-3.557-2.218-6.981-4.649-10.283-7.228c-3.492-2.726-4.012-4.939-5.471-8.741
				c-3.348,1.122-6.709,1.735-10.272,1.005c-9.886-2.026-20.431-1.704-30.079-4.618c-6.16-1.862-10.463-3.151-16.874-2.803
				c-2.083,0.114-4.356,0.172-6.41-0.276c-0.633-0.137-1.181-0.482-1.833-0.544c-1.084-0.104-2.247,0.074-3.339,0.099
				c-0.497,0.011-2.161,0.176-2.207-0.578c-0.055-0.925,2.157-1.346,2.739-1.396c1.247-0.109,2.635,0.316,3.843-0.09
				c0.778-0.263,1.396-0.947,2.078-1.389c-0.938-1.144-1.73-2.283-3.11-2.914c-1.795-0.821-3.653-1.503-5.325-2.574
				c-0.764-0.489-3.346-2.118-2.852-3.254c0.684-0.087,1.208,0.181,1.797,0.489c1.125,0.59,2.297,1.097,3.446,1.636
				c1.013,0.478,2.065,0.875,3.112,1.272c0.7,0.266,1.719,1.081,2.472,0.947c0.986-0.176-0.138-1.312-0.411-1.73
				c-0.645-0.988-1.108-2.063-1.726-3.065c-0.821-1.335-1.291-2.791-1.419-4.357c0.726-0.118,1.574,0.885,1.949,1.381
				c0.972,1.278,1.681,2.751,2.718,3.979c0.305,0.361,0.965,1.271,1.488,1.3c1.021,0.058,0.269-1.417,0.059-1.856
				c-0.639-1.336-1.763-2.829-2.044-4.298c-0.292-1.522,1.103-0.459,1.624,0.104c0.875,0.938,1.546,2.038,2.262,3.094
				c0.314,0.467,0.694,1.252,1.162,1.577c0.249,0.173,0.657,0.271,0.843-0.041c0.203-0.349-0.322-0.876-0.475-1.16
				c-0.159-0.294-1.095-1.814-0.548-2.092c0.615-0.312,2.514,2.646,3.052,3.124c2.494,2.214,2.898,3.66,5.954,5.203
				c0.229,0.115,0.467,0.222,0.714,0.318c4.104,1.603,10.519,0.646,14.551,0.098c10.06-1.362,18.665-7.15,28.601-8.839
				c2.231-0.38,4.801-0.885,7.055-0.888c0.893-0.002,6.381,0.475,6.682,1.434c-1.174-3.739,1.354-9.738-1.648-12.903
				c-1.278-1.348-3.143-1.487-4.457-3.296c-1.725-2.374-3.361-5.436-4.779-7.978c-1.355-2.433-2.408-6.259-0.32-8.565
				c2.385-2.634,5.359-4.839,8.354-6.729c2.432-1.536,4.964-2.669,7.547-3.896c2.217-1.055,4.86-2.028,7.344-1.423
				c1.279,0.312,2.816,0.773,3.851,1.627c0.875,0.722,1.15,1.836,1.461,2.878c0.656,2.207,0.826,4.341,2.447,6.083
				c1.651,1.774,2.428,3.62,3.154,5.899c1.277,4.009,0.421,7.729-2.958,10.35c-1.09,0.844-2.302,1.595-3.521,2.236
				c-0.047,3.236,1.996,6.457,4.268,8.625c3.102,2.958,3.484-0.771,6.105-2.445c5.871-3.745,13.132,1.677,18.652,3.651
				c5.828,2.088,11.549,2.476,17.504,3.793c5.994,1.327,11.735,3.631,17.809,4.655c5.265,0.889,11.279,2.128,16.557,0.647
				c2.055-0.578,4.26-0.552,6.249-1.305c0.583-0.223,4.315-1.703,3.349,0.156c-0.59,1.124-3.086,1.409-4.062,2.355
				c-1.485,1.443-1.501,2.441,0.271,3.444c1.836,1.038,3.652,1.746,5.7,2.269c1.571,0.4,3.187,0.875,4.796,1.047
				c0.528,0.058,1.383-0.088,1.812,0.305c1.19,1.084-1.55,1.431-2.163,1.424c-1.166-0.015-2.48-0.334-3.616-0.587
				c-0.722-0.161-1.438-0.358-2.153-0.549c-0.371-0.101-2.289-0.339-2.513-0.614c1.188,1.466,3.036,2.512,4.685,3.385
				c0.674,0.355,1.39,0.676,2.084,0.975c0.779,0.332,1.666,0.365,2.414,0.779c0.512,0.28,0.644,0.58,0.11,0.99
				C267.957,115.246,265.021,113.359,263.71,112.532z"/>
		</g>
		<path fill="#C63C17" d="M152.784,83.161c-3.351,0.298-7.409-2.295-9.847-4.391c-1.293-1.113-2.479-2.356-3.694-3.551
			c-0.474,2.504-3.879,4.528-5.933,5.688c-2.565,1.448-6.605,1.09-9.237,0.074c-0.392,2.392-3.002,4.577-5.446,4.492
			c-2.289-0.076-4.494-1.908-6.517-2.873c-1.968,3.686-5.96,6.625-10.284,5.271c0.244,1.954-2.779,3.421-4.168,4.092
			c-2.085,1.007-3.436,1.806-5.74,0.854c-0.57,0.505-0.357,1.122-0.699,1.677c-0.405,0.658-1.106,0.946-1.782,1.25
			c-1.423,0.645-2.825,0.815-4.374,0.758c-0.008-1.868,0.67-4.094,2.207-5.256c0.675-0.51,1.687-0.613,2.252-1.211
			c0.669-0.705,0.812-1.723,1.605-2.473c1.711-1.618,3.602-2.752,5.932-3.071c2.329-0.317,2.833-2.96,4.9-4.26
			c2.286-1.439,4.729-1.869,7.393-1.521c0.095-1.607,1.896-2.893,3.334-3.248c1.718-0.424,2.942,0.233,4.574,0.477
			c-1.233-3.198,2.459-4.292,4.996-4.41c3.194-0.151,5.899,1.238,8.91,1.646c0.062-3.215,3.512-5.128,6.616-4.875
			c-1.833-5.334,6.179-5.526,9.389-4.953c1.829,0.326,3.991,1.132,5.729,1.807c3.169,1.229,4.568,4.854,5.349,7.891
			C159.264,76.991,157.451,82.747,152.784,83.161z"/>
		<g>
			<path fill="#F59822" d="M159.014,64.43c0.283,1.713,0.683,3.4,1.342,5.016c1.683,4.122,5.013,7.382,8.976,9.378
				c1.062,0.534,3.384,0.854,4.374,1.018l-1.143,0.693c-1.773,0.638-3.131,1.394-4.869,2.059
				c-3.379,1.293-11.954-8.805-13.551-15.811C155.822,66.107,157.452,65.308,159.014,64.43z"/>
		</g>
		<path fill="#3E9E82" d="M171.572,138.26c-0.46,0.025-0.917,0.03-1.371,0.028c-1.086-0.414-2.316-0.493-3.396-0.946
			c-1.783-0.744-3.476-1.917-5.109-2.937c-3.557-2.218-6.98-4.649-10.283-7.229c-3.492-2.726-4.011-4.938-5.471-8.741
			c-2.91,0.977-5.833,2.544-8.887,2.2c0.27-2.761-0.16-6.639-0.299-9.362c-0.214-4.256-3.078-9.736-5.549-13.326
			c3.049-1.125,7.038-2.559,10.271-3.108c2.231-0.381,6.256-0.988,8.511-0.992c0.847-0.003,4.358,1.878,5.131,2.74
			c0.041,0.175,0.083,0.35,0.106,0.527c0.317,2.46-0.994,4.785-0.61,7.348c0.635,4.242,6.383,12.616,7.672,11.33
			c5.812-5.793,10.679-13.066,13.829-19.963c0.811-1.774,1.738-3.391,2.309-5.179c1.172-0.427,1.936-2.371,3.637-3.457
			c5.871-3.745,13.132,1.677,18.652,3.651c1.646,0.591,4.064,0.255,5.699,0.633c-0.855,4.087-1.818,9.086-1.135,13.225
			c0.429,2.59,1.197,5.123,2.348,7.489c0.062,0.125,1.825,1.958,1.982,2.196c-0.694-0.038-3.018,0.193-3.69,0.12
			c-2.567-0.278-5.884-3.85-8.405-3.171c1.304,2.716,3.985,3.764,5.73,5.644c-1.83,1.572-4.098,5.06-5.686,6.877
			c-3.674,4.208-5.351,8.979-10.207,11.605C183.614,137.482,175.921,138.014,171.572,138.26z"/>
		<path fill="#00476B" d="M160.08,157.521c1.582-2.294,3.423-3.961,5.247-6.005c1.923-2.154,3.272-5.282,4.31-8.345
			c2.573,1.497,5.235,2.84,8.013,3.927c9.84,3.85,22.034,2.075,30.44-4.365c3.219-2.468,5.696-5.769,8.057-9.027
			c0.753-1.043,1.447-2.153,1.881-3.372c0.171-0.483,0.686-2.464,0.783-2.976c5.192,2.833,9.809,7.493,13.203,12.447
			c8.285,12.085,5.293,24.746-2.769,36.055c-3.925,5.508-9.444,9.596-15.21,13.022c-0.646,0.386-1.312,0.791-1.986,1.209
			c-0.264-1.826-0.613-3.627-1.326-5.354c-3.281-7.965-12.277-13.805-20.959-12.101c-3.683,0.722-6.799,2.382-9.728,4.428
			c0.399-0.887,0.812-1.768,1.241-2.635c-2.059,1.97-4.116,3.93-6.213,5.845c0.625-5.081-0.547-9.913-4.518-13.529
			c-3.609-3.283-9.115-4.246-13.826-3.388c-0.709,0.128-1.512,0.288-2.334,0.476C156.479,161.942,158.432,159.911,160.08,157.521z"
			/>
		<path fill="#F59822" d="M117.729,112.477c-0.428-2.669-0.601-5.698-0.328-8.365c1.72-0.447,3.406-0.987,5.076-1.584
			c-0.471,1.537-0.918,4.615-0.182,9.199l0.055,0.332c0.356,2.227,0.726,4.505,1.05,5.701c-1.644-0.168-3.288-0.335-4.927-0.523
			c-0.242-1.222-0.478-2.681-0.756-4.426L117.729,112.477z"/>
		<path fill="#F59822" d="M223.748,96.094c-0.494,1.309-1.062,3.487-1.342,6.943c-0.387,4.771,0.842,8.334,1.703,10.186
			c-1.762-0.1-3.506-0.195-5.221-0.263c-0.857-2.521-1.576-6.022-1.229-10.305c0.285-3.515,0.854-6.018,1.469-7.797
			C220.68,95.228,222.217,95.647,223.748,96.094z"/>
		<path fill="#F59822" d="M175.628,195.175c3.558-0.366,8.205-0.763,12.648-0.603c2.334,0.088,4.541,0.548,6.677,0.994
			c1.428,0.297,2.779,0.574,4.121,0.738c-2.959,1.428-5.241,2.579-5.643,3.01c0.941,0.319,1.758,0.76,2.48,1.284
			c-0.65-0.125-1.3-0.255-1.938-0.39c-2.029-0.424-3.945-0.823-5.877-0.895c-4.137-0.154-8.578,0.229-11.98,0.58L175.628,195.175z"
			/>
		<path fill="#F59822" d="M147.055,201.125c-1.176-3.923-6.179-9.153-10.908-12.78l2.902-3.761
			c2.535,1.943,9.735,7.869,12.193,14.121c-0.979,0.637-1.964,1.251-2.952,1.801C147.78,200.791,147.398,200.963,147.055,201.125z"
			/>
		<path fill="#E84E1C" d="M181.244,204.029c-0.62,1.779-1.704,3.246-2.432,4.938c-2.877-0.763-5.405-3.744-7.109-6.083
			c-2.301-3.157-1.843-6.425,0.137-9.553c1.039-1.645,1.913-3.185,2.485-5.062c1.907,0.825,3.271,3.423,4.694,4.94
			c1.57,1.676,2.414,2.674,3.084,4.913C182.928,200.871,182.077,201.631,181.244,204.029z"/>
		<path fill="#E84E1C" d="M130.994,182.051c-0.453,0.556-0.876,1.147-1.303,1.783c-1.641,2.44-2.727,6.541-2.178,9.52
			c0.144,0.776,7.086-1.139,7.737-1.438c2.491-1.148,4.492-2.812,5.104-5.544c0.73-3.282,0.218-7.616-1.635-10.463
			c-0.822,0.714-1.855,0.858-2.75,1.457c-1.053,0.706-1.854,1.791-2.849,2.575C132.297,180.592,131.617,181.288,130.994,182.051z"/>
		<path fill="#0067A5" d="M160.462,63.59c-4.337,2.621-9.298,4.825-14.42,5.171c-1.972,0.134-9.174-0.014-10.104-1.794
			c-1.435-2.75,0.041-9.199,0.252-12.16c0.688-9.554,8.113-16.552,17.644-17.807c3.851-0.506,7.248,0.81,10.293,3.074
			c2.443,1.817,5.927,4.706,7.708,7.141C175.532,52.271,164.137,61.367,160.462,63.59z"/>
	</g>
	<path fill="#45A7CE" d="M219.881,206.855c0,0,9.535-40.482,51.98-39.035c42.434,1.433,49.021,38.076,49.021,38.076
		s29.428,6.896,35.702,3.855c0,0-10.036,14.088-31.344,15.057c0,0,11.71,7.737,28.113,6.383c0,0-16.989,10.851-34.488,12.035
		c0,0-22.195,54.75-85.781,78.045c-63.593,23.31-99.704,2.023-118.636-7.694c-18.927-9.724-48.811-29.368-60.034-56.272
		c0,0,32.646,24.199,76.933,15.242c0,0-33.174-19.383-26.349-54.623c0,0,14.565,9.044,20.017,10.67c0,0-33.438-37.131-11.688-66.278
		c0,0,5.172,11.271,16.985,15.776c0,0-11.872-25.667-0.045-48.549c11.832-22.89,18.99-20.786,18.99-20.786
		S156.895,174.509,219.881,206.855"/>
</g>
</svg>
